# xmcd
#
# Track frame offsets:
#	150
#	18072
#	36547
#	57725
#	73400
#	93940
#	116120
#	134735
#	159382
#	180690
#	201417
#	221957
#
# Disc length: 3306 seconds
#
# Revision: 0
# Processed by: cddbd v1.4PL0 Copyright (c) Steve Scherf et al.
# Submitted via: dBpowerAMP V4.0
#
DISCID=c30ce80c
DTITLE=Zucchero - bluesugar
DYEAR=1998
DGENRE=Blues
TTITLE0=Blu
TTITLE1=Blu
TTITLE2=Accord
TTITLE3=Puro Amore
TTITLE4=Back 2 u
TTITLE5=Donkey Tonkey
TTITLE6=X Sempre Tuo
TTITLE7=Eccetera Eccetera
TTITLE8=Karma, Stai Kalma
TTITLE9=Dopo Di Noi
TTITLE10=I Tempi Cambieranno
TTITLE11=You Make Me Feel Loved
EXTD=Zuccero "Sugar" Fornaciari 
EXTT0=
EXTT1=
EXTT2=
EXTT3=
EXTT4=
EXTT5=
EXTT6=
EXTT7=
EXTT8=
EXTT9=
EXTT10=
EXTT11=
PLAYORDER=
